<svg xmlns="http://www.w3.org/2000/svg" viewbox="0 0 110 199">
  <path d="M85.160,98.300 C75.687,107.124 69.935,112.946 69.935,119.365 L69.935,137.032 C69.935,145.299 63.247,152.002 54.998,152.002 C46.748,152.002 40.060,145.299 40.060,137.032 L40.060,119.365 C40.060,99.436 53.789,86.647 64.820,76.371 C74.344,67.499 80.127,61.642 80.127,55.120 C80.127,41.234 68.854,29.937 54.998,29.937 C41.142,29.937 29.869,41.234 29.869,55.120 C29.869,63.387 23.181,70.090 14.931,70.090 C6.681,70.090 -0.006,63.387 -0.006,55.120 C-0.006,24.725 24.668,-0.003 54.998,-0.003 C85.327,-0.003 110.002,24.725 110.002,55.120 C110.002,75.158 96.228,87.990 85.160,98.300 ZM55.000,167.335 C63.704,167.335 70.760,174.391 70.760,183.094 C70.760,191.798 63.704,198.854 55.000,198.854 C46.296,198.854 39.240,191.798 39.240,183.094 C39.240,174.391 46.296,167.335 55.000,167.335 Z"/>
</svg>