<svg xmlns="http://www.w3.org/2000/svg" viewbox="0 0 76 76">
  <path d="M67.1000,46.000 L46.000,46.000 L46.000,67.1000 C46.000,72.418 42.418,75.1000 38.000,75.1000 C33.582,75.1000 29.1000,72.418 29.1000,67.1000 L29.1000,46.000 L8.000,46.000 C3.582,46.000 0.000,42.418 0.000,38.000 C0.000,33.582 3.582,29.1000 8.000,29.1000 L29.1000,29.1000 L29.1000,8.000 C29.1000,3.582 33.582,0.000 38.000,0.000 C42.418,0.000 46.000,3.582 46.000,8.000 L46.000,29.1000 L67.1000,29.1000 C72.418,29.1000 75.1000,33.582 75.1000,38.000 C75.1000,42.418 72.418,46.000 67.1000,46.000 Z"/>
</svg>