<svg viewbox="0 0 108 109" >
  <path d="M98.000,85.1000 L86.000,85.1000 L86.000,98.1000 C86.000,104.523 81.523,108.1000 76.000,108.1000 L10.000,108.1000 C4.477,108.1000 0.000,104.523 0.000,98.1000 L0.000,32.1000 C0.000,27.477 4.477,22.1000 10.000,22.1000 L22.000,22.1000 L22.000,10.000 C22.000,4.477 26.477,0.000 32.000,0.000 L98.000,0.000 C103.523,0.000 108.000,4.477 108.000,10.000 L108.000,76.000 C108.000,81.523 103.523,85.1000 98.000,85.1000 ZM17.006,34.006 C13.692,34.006 11.006,36.692 11.006,40.006 L11.006,91.994 C11.006,95.308 13.692,97.994 17.006,97.994 L68.994,97.994 C72.308,97.994 74.994,95.308 74.994,91.994 L74.994,40.006 C74.994,36.692 72.308,34.006 68.994,34.006 L17.006,34.006 ZM96.994,17.006 C96.994,13.692 94.308,11.006 90.994,11.006 L39.006,11.006 C35.692,11.006 33.006,13.692 33.006,17.006 L33.006,22.1000 L76.000,22.1000 C81.523,22.1000 86.000,27.477 86.000,32.1000 L86.000,74.994 L90.994,74.994 C94.308,74.994 96.994,72.308 96.994,68.994 L96.994,17.006 Z"/>
</svg>