<svg xmlns="http://www.w3.org/2000/svg" viewbox="0 0 256 256">
  <path fill-rule="evenodd"  fill="rgb(102, 9, 170)" d="M128.000,255.005 C128.000,255.005 33.994,183.571 33.994,107.130 C33.994,105.134 34.077,101.136 34.199,99.137 C38.879,173.271 128.000,241.005 128.000,241.005 C128.000,241.005 217.121,173.271 221.801,99.137 C221.923,101.136 222.006,105.134 222.006,107.130 C222.006,183.571 128.000,255.005 128.000,255.005 Z"/>
  <path fill-rule="evenodd"  fill="rgb(145, 51, 214)" d="M128.000,243.005 C128.000,243.005 33.994,171.571 33.994,95.130 C33.994,43.140 76.082,0.995 128.000,0.995 C179.918,0.995 222.006,43.140 222.006,95.130 C222.006,171.571 128.000,243.005 128.000,243.005 Z"/>
  <path fill-rule="evenodd"  fill="rgb(217, 181, 244)" d="M128.000,159.962 C92.243,159.962 63.256,130.935 63.256,95.129 C63.256,59.323 92.243,30.297 128.000,30.297 C163.757,30.297 192.744,59.323 192.744,95.129 C192.744,130.935 163.757,159.962 128.000,159.962 Z"/>
  <path fill-rule="evenodd"  fill="rgb(241, 226, 252)" d="M109.012,120.086 C109.012,128.479 111.359,136.323 115.430,142.1000 C94.222,137.431 78.576,118.111 78.576,95.128 C78.576,67.795 100.704,45.636 128.000,45.636 C150.855,45.636 170.077,61.174 175.730,82.273 C169.111,78.299 161.365,76.010 153.083,76.010 C128.743,76.010 109.012,95.744 109.012,120.086 Z"/>
</svg>
