<svg xmlns="http://www.w3.org/2000/svg" viewbox="0 0 180 178">
  <path d="M179.1000,78.401 C179.1000,96.092 165.681,110.437 148.000,110.482 L148.000,110.484 L110.000,110.484 L110.000,75.484 C110.000,71.066 106.418,67.484 101.1000,67.484 L77.1000,67.484 C73.582,67.484 69.1000,71.066 69.1000,75.484 L69.1000,110.484 L32.000,110.484 L32.000,110.484 C31.998,110.484 31.997,110.484 31.995,110.484 C14.319,110.484 -0.010,96.155 -0.010,78.479 C-0.010,61.933 12.546,48.322 28.649,46.649 C28.641,46.333 28.625,46.020 28.625,45.703 C28.625,24.647 45.694,7.578 66.750,7.578 C77.362,7.578 86.957,11.917 93.869,18.913 C100.752,7.852 113.013,0.484 127.000,0.484 C148.539,0.484 165.1000,17.945 165.1000,39.484 C165.1000,43.431 165.409,47.238 164.319,50.828 C173.708,56.425 179.1000,66.676 179.1000,78.401 ZM79.311,131.952 L79.311,79.796 C79.311,77.967 80.784,76.484 82.600,76.484 L97.400,76.484 C99.216,76.484 100.689,77.967 100.689,79.796 L100.689,131.952 L126.201,131.952 C127.310,133.243 127.248,135.480 126.139,136.771 L92.008,176.533 C90.899,177.824 89.101,177.824 87.992,176.533 L53.861,136.771 C52.752,135.480 52.690,133.243 53.799,131.952 L79.311,131.952 Z"/>
</svg>