<svg xmlns="http://www.w3.org/2000/svg" viewbox="0 0 180 219">
  <path d="M180.000,90.250 C180.000,104.818 171.743,117.450 159.658,123.744 C159.461,124.895 159.216,126.046 158.908,127.197 C153.477,147.468 132.640,159.498 112.368,154.067 C102.689,151.473 94.896,145.363 89.978,137.484 C85.040,145.184 77.316,151.141 67.764,153.693 C47.453,159.120 26.575,147.100 21.133,126.846 C20.824,125.697 20.579,124.546 20.381,123.396 C8.273,117.107 -0.000,104.486 -0.000,89.931 C-0.000,75.091 8.597,62.260 21.093,56.102 C19.932,53.071 19.268,49.794 19.268,46.356 C19.268,31.248 31.550,19.000 46.701,19.000 C49.870,19.000 52.901,19.563 55.733,20.549 C63.672,8.071 76.289,0.000 90.500,0.000 C104.686,0.000 117.283,8.043 125.224,20.485 C127.799,19.683 130.536,19.250 133.375,19.250 C148.494,19.250 160.750,31.506 160.750,46.625 C160.750,50.067 160.087,53.348 158.928,56.382 C171.410,62.541 180.000,75.390 180.000,90.250 ZM75.671,165.599 C81.612,162.481 86.502,157.911 89.992,152.460 C93.466,158.025 98.355,162.718 104.350,165.902 C105.383,180.935 106.417,195.967 107.450,210.1000 C107.789,215.418 103.076,218.1000 96.923,218.1000 C92.308,218.1000 87.692,218.1000 83.077,218.1000 C76.924,218.1000 72.211,215.418 72.550,210.1000 C73.590,195.866 74.631,180.732 75.671,165.599 Z"/>
</svg>