<svg xmlns="http://www.w3.org/2000/svg" viewBox="0 0 202 202">
  <path d="M196.399,119.115 C189.472,120.298 182.544,121.480 175.616,122.663 C174.011,128.199 171.795,133.473 169.067,138.426 C173.134,144.167 177.200,149.907 181.267,155.648 C182.798,157.843 182.761,160.899 181.186,162.475 C174.949,168.712 168.712,174.949 162.475,181.186 C160.899,182.761 157.843,182.798 155.648,181.267 C149.913,177.204 144.178,173.141 138.442,169.079 C133.493,171.809 128.200,173.982 122.667,175.591 C121.483,182.527 120.299,189.463 119.115,196.399 C118.646,199.034 116.459,201.169 114.230,201.169 C105.410,201.169 96.590,201.169 87.770,201.169 C85.541,201.169 83.354,199.034 82.885,196.399 C81.702,189.472 80.520,182.544 79.337,175.616 C73.801,174.011 68.527,171.795 63.574,169.067 C57.833,173.134 52.093,177.200 46.352,181.267 C44.157,182.798 41.101,182.761 39.525,181.186 C33.288,174.949 27.051,168.712 20.814,162.475 C19.239,160.899 19.202,157.843 20.733,155.648 C24.796,149.913 28.859,144.178 32.921,138.442 C30.191,133.493 28.018,128.200 26.409,122.667 C19.473,121.483 12.537,120.299 5.601,119.115 C2.966,118.646 0.831,116.459 0.831,114.230 C0.831,105.410 0.831,96.590 0.831,87.770 C0.831,85.541 2.966,83.354 5.601,82.885 C12.525,81.703 19.448,80.521 26.372,79.339 C27.977,73.802 30.215,68.541 32.944,63.589 C28.873,57.844 24.803,52.098 20.733,46.352 C19.202,44.157 19.239,41.101 20.814,39.525 C27.051,33.288 33.288,27.051 39.525,20.814 C41.101,19.239 44.157,19.202 46.352,20.733 C52.100,24.805 57.848,28.876 63.595,32.948 C68.545,30.222 73.804,27.988 79.337,26.384 C80.520,19.456 81.702,12.528 82.885,5.601 C83.354,2.966 85.541,0.831 87.770,0.831 C96.590,0.831 105.410,0.831 114.230,0.831 C116.459,0.831 118.646,2.966 119.115,5.601 C120.298,12.528 121.480,19.456 122.663,26.384 C128.199,27.989 133.473,30.205 138.426,32.933 C144.167,28.866 149.907,24.800 155.648,20.733 C157.843,19.202 160.899,19.239 162.475,20.814 C168.712,27.051 174.949,33.288 181.186,39.525 C182.761,41.101 182.798,44.157 181.267,46.352 C177.204,52.087 173.141,57.822 169.079,63.558 C171.809,68.507 173.982,73.800 175.591,79.333 C182.527,80.517 189.463,81.701 196.399,82.885 C199.034,83.354 201.169,85.541 201.169,87.770 C201.169,96.590 201.169,105.410 201.169,114.230 C201.169,116.459 199.034,118.646 196.399,119.115 ZM100.1000,52.165 C74.029,52.165 52.165,74.029 52.165,101.000 C52.165,127.971 74.029,149.835 100.1000,149.835 C127.971,149.835 149.835,127.971 149.835,101.000 C149.835,74.029 127.971,52.165 100.1000,52.165 Z"/>
</svg>