<?xml version="1.0" encoding="UTF-8"?>
<svg id="a" data-name="Layer 1" xmlns="http://www.w3.org/2000/svg" viewBox="0 0 185.21 195.75">
  <path d="M23.79,29.63c13.14,0,23.79,10.65,23.79,23.79s-10.65,23.79-23.79,23.79S0,66.56,0,53.42,10.65,29.63,23.79,29.63Z" />
  <path d="M33.29,118.08c13.16,0,23.83,10.67,23.83,23.83s-10.67,23.83-23.83,23.83-23.83-10.67-23.83-23.83,10.67-23.83,23.83-23.83Z" />
  <path d="M141.29,148.08c13.16,0,23.83,10.67,23.83,23.83s-10.67,23.83-23.83,23.83-23.83-10.67-23.83-23.83,10.67-23.83,23.83-23.83Z" />
  <path d="M161.29,0c13.21,0,23.92,10.71,23.92,23.92s-10.71,23.92-23.92,23.92-23.92-10.71-23.92-23.92S148.08,0,161.29,0Z" />
  <path d="M141.29,140.08c5,0,9.74,1.16,13.96,3.23l11.9-88.03c-1.9,.35-3.85,.55-5.85,.55-5.01,0-9.75-1.16-13.97-3.23l-11.9,88.02c1.9-.36,3.86-.55,5.86-.55Z" />
  <path d="M51.34,37.59c2.69,4.67,4.24,10.07,4.24,15.83,0,1.27-.08,2.53-.23,3.76l78.46-17.06c-2.81-4.75-4.44-10.29-4.44-16.21,0-1.13,.06-2.24,.17-3.33L51.34,37.59Z" />
  <path d="M114.86,154.2l-49.77-13.83c.02,.51,.04,1.03,.04,1.55,0,6.55-1.99,12.65-5.4,17.72l49.77,13.83c-.02-.51-.04-1.03-.04-1.55,0-6.55,1.99-12.65,5.4-17.72Z" />
  <path d="M33.29,110.08c2.24,0,4.42,.23,6.52,.67l-3.21-28.25c-3.92,1.73-8.26,2.71-12.81,2.71-2.44,0-4.82-.29-7.1-.81l3.25,28.63c4.06-1.88,8.58-2.94,13.35-2.94Z" />
</svg>