<svg xmlns="http://www.w3.org/2000/svg" viewbox="0 0 92 101">
  <path d="M82.062,20.225 C76.573,20.225 72.123,15.697 72.123,10.112 C72.123,4.527 76.573,-0.000 82.062,-0.000 C87.550,-0.000 92.000,4.527 92.000,10.112 C92.000,15.697 87.550,20.225 82.062,20.225 ZM80.606,34.265 C82.027,39.660 78.881,45.205 73.579,46.650 C68.277,48.096 62.827,44.894 61.407,39.500 C59.986,34.105 63.133,28.560 68.434,27.115 C73.736,25.669 79.186,28.871 80.606,34.265 ZM45.000,61.042 C39.454,61.042 34.958,56.546 34.958,51.000 C34.958,45.454 39.454,40.958 45.000,40.958 C50.546,40.958 55.042,45.454 55.042,51.000 C55.042,56.546 50.546,61.042 45.000,61.042 ZM23.688,75.164 C18.362,76.594 12.887,73.428 11.460,68.093 C10.033,62.759 13.193,57.275 18.520,55.846 C23.846,54.416 29.320,57.582 30.748,62.917 C32.175,68.252 29.014,73.735 23.688,75.164 ZM19.968,91.000 C19.968,96.523 15.498,101.000 9.984,101.000 C4.470,101.000 -0.000,96.523 -0.000,91.000 C-0.000,85.477 4.470,81.000 9.984,81.000 C15.498,81.000 19.968,85.477 19.968,91.000 Z"/>
</svg>