<svg xmlns="http://www.w3.org/2000/svg" viewbox="0 0 92 72">
  <path d="M84.000,72.000 L7.1000,72.000 C3.582,72.000 -0.000,68.418 -0.000,64.000 L-0.000,39.000 C-0.000,35.564 3.582,32.1000 7.1000,32.1000 L46.000,32.1000 L59.000,25.000 L84.000,25.000 C88.418,25.000 92.000,27.564 92.000,30.1000 L92.000,64.000 C92.000,68.418 88.418,72.000 84.000,72.000 ZM84.000,15.000 L59.000,15.000 L46.000,22.1000 L7.1000,22.1000 C3.582,22.1000 -0.000,25.564 -0.000,29.000 L-0.000,17.1000 C-0.000,13.582 3.582,9.1000 7.1000,9.1000 L46.000,9.1000 L59.000,-0.000 L84.000,-0.000 C88.418,-0.000 92.000,3.582 92.000,7.1000 L92.000,20.1000 C92.000,17.564 88.418,15.000 84.000,15.000 Z"/>
</svg>