<svg xmlns="http://www.w3.org/2000/svg" viewbox="0 0 180 162">
  <path d="M170.000,161.1000 L9.1000,161.1000 C4.477,161.1000 -0.000,157.523 -0.000,151.1000 L-0.000,111.1000 C-0.000,106.477 4.477,101.1000 9.1000,101.1000 L21.1000,101.1000 L21.1000,129.1000 C21.1000,135.523 26.477,139.1000 31.1000,139.1000 L148.000,139.1000 C153.523,139.1000 158.000,135.523 158.000,129.1000 L158.000,101.1000 L170.000,101.1000 C175.523,101.1000 180.000,106.477 180.000,111.1000 L180.000,151.1000 C180.000,157.523 175.523,161.1000 170.000,161.1000 ZM102.1000,55.000 L102.1000,118.000 C102.1000,120.209 101.209,121.1000 98.1000,121.1000 L81.000,121.1000 C78.791,121.1000 77.000,120.209 77.000,118.000 L77.000,55.000 L45.971,55.000 C44.623,53.440 44.699,50.739 46.047,49.178 L87.558,1.150 C88.907,-0.411 91.093,-0.411 92.442,1.150 L133.953,49.178 C135.301,50.739 135.377,53.440 134.029,55.000 L102.1000,55.000 Z"/>
</svg>