<svg xmlns="http://www.w3.org/2000/svg" viewbox="0 0 177 170">
  <path d="M174.645,87.825 L94.149,128.300 C91.029,129.869 85.971,129.869 82.851,128.300 L2.355,87.825 C-0.765,86.256 -0.765,83.713 2.355,82.144 L16.593,74.984 L82.851,108.300 C85.971,109.869 91.029,109.869 94.149,108.300 L160.407,74.984 L174.645,82.144 C177.765,83.713 177.765,86.256 174.645,87.825 ZM174.645,47.825 L94.149,88.300 C91.029,89.869 85.971,89.869 82.851,88.300 L2.355,47.825 C-0.765,46.256 -0.765,43.713 2.355,42.144 L82.851,1.668 C85.971,0.100 91.029,0.100 94.149,1.668 L174.645,42.144 C177.765,43.713 177.765,46.256 174.645,47.825 ZM2.355,122.144 L16.593,114.984 L82.851,148.300 C85.971,149.869 91.029,149.869 94.149,148.300 L160.407,114.984 L174.645,122.144 C177.765,123.713 177.765,126.256 174.645,127.825 L94.149,168.300 C91.029,169.869 85.971,169.869 82.851,168.300 L2.355,127.825 C-0.765,126.256 -0.765,123.713 2.355,122.144 Z"/>
</svg>