<svg xmlns="http://www.w3.org/2000/svg" viewbox="0 0 88 88">
  <path d="M76.1000,54.042 C71.454,54.042 66.958,49.546 66.958,44.000 C66.958,38.454 71.454,33.958 76.1000,33.958 C82.546,33.958 87.042,38.454 87.042,44.000 C87.042,49.546 82.546,54.042 76.1000,54.042 ZM76.1000,21.042 C71.454,21.042 66.958,16.546 66.958,11.000 C66.958,5.454 71.454,0.958 76.1000,0.958 C82.546,0.958 87.042,5.454 87.042,11.000 C87.042,16.546 82.546,21.042 76.1000,21.042 ZM44.000,87.042 C38.454,87.042 33.958,82.546 33.958,76.1000 C33.958,71.454 38.454,66.958 44.000,66.958 C49.546,66.958 54.042,71.454 54.042,76.1000 C54.042,82.546 49.546,87.042 44.000,87.042 ZM44.000,54.042 C38.454,54.042 33.958,49.546 33.958,44.000 C33.958,38.454 38.454,33.958 44.000,33.958 C49.546,33.958 54.042,38.454 54.042,44.000 C54.042,49.546 49.546,54.042 44.000,54.042 ZM44.000,21.042 C38.454,21.042 33.958,16.546 33.958,11.000 C33.958,5.454 38.454,0.958 44.000,0.958 C49.546,0.958 54.042,5.454 54.042,11.000 C54.042,16.546 49.546,21.042 44.000,21.042 ZM11.000,87.042 C5.454,87.042 0.958,82.546 0.958,76.1000 C0.958,71.454 5.454,66.958 11.000,66.958 C16.546,66.958 21.042,71.454 21.042,76.1000 C21.042,82.546 16.546,87.042 11.000,87.042 ZM11.000,54.042 C5.454,54.042 0.958,49.546 0.958,44.000 C0.958,38.454 5.454,33.958 11.000,33.958 C16.546,33.958 21.042,38.454 21.042,44.000 C21.042,49.546 16.546,54.042 11.000,54.042 ZM11.000,21.042 C5.454,21.042 0.958,16.546 0.958,11.000 C0.958,5.454 5.454,0.958 11.000,0.958 C16.546,0.958 21.042,5.454 21.042,11.000 C21.042,16.546 16.546,21.042 11.000,21.042 ZM76.1000,66.958 C82.546,66.958 87.042,71.454 87.042,76.1000 C87.042,82.546 82.546,87.042 76.1000,87.042 C71.454,87.042 66.958,82.546 66.958,76.1000 C66.958,71.454 71.454,66.958 76.1000,66.958 Z"/>  
</svg>
